<?xml version="1.0" encoding="UTF-8"?>
<!DOCTYPE svg PUBLIC "-//W3C//DTD SVG 1.1//EN" "http://www.w3.org/Graphics/SVG/1.1/DTD/svg11.dtd">
<svg xmlns="http://www.w3.org/2000/svg" version="1.1" width="984px" height="225px" style="shape-rendering:geometricPrecision; text-rendering:geometricPrecision; image-rendering:optimizeQuality; fill-rule:evenodd; clip-rule:evenodd" xmlns:xlink="http://www.w3.org/1999/xlink">
<g><path style="opacity:1" fill="#4385f3" d="M 459.5,2.5 C 472.537,2.22329 485.537,2.55662 498.5,3.5C 498.832,70.6687 498.499,137.669 497.5,204.5C 484.117,204.815 470.784,204.482 457.5,203.5C 456.5,137.17 456.167,70.8367 456.5,4.5C 458.179,4.71481 459.179,4.04814 459.5,2.5 Z"/></g>
<g><path style="opacity:1" fill="#4385f3" d="M 576.5,3.5 C 576.783,4.28913 577.283,4.9558 578,5.5C 578.5,71.8325 578.667,138.166 578.5,204.5C 564.765,205.83 550.931,205.83 537,204.5C 536.5,137.501 536.333,70.5008 536.5,3.5C 549.974,2.21312 563.307,2.21312 576.5,3.5 Z"/></g>
<g><path style="opacity:1" fill="#4285f3" d="M 950.5,3.5 C 950.667,69.8342 950.5,136.168 950,202.5C 949.5,203 949,203.5 948.5,204C 935.838,204.5 923.171,204.667 910.5,204.5C 909.674,200.018 909.174,195.351 909,190.5C 900.511,198.995 890.344,204.161 878.5,206C 850.503,210.336 827.003,202.17 808,181.5C 786.867,149.581 786.201,117.247 806,84.5C 824.585,62.1392 848.418,52.9725 877.5,57C 888.894,58.7808 898.728,63.6142 907,71.5C 907.333,49.1667 907.667,26.8333 908,4.5C 909.067,3.80945 910.234,3.30945 911.5,3C 924.533,2.22344 937.533,2.39011 950.5,3.5 Z M 864.5,92.5 C 892.33,90.6643 906.997,103.664 908.5,131.5C 906.844,159.993 891.844,172.826 863.5,170C 845.062,164.009 835.728,151.176 835.5,131.5C 835.746,111.29 845.413,98.2901 864.5,92.5 Z"/></g>
<g><path style="opacity:1" fill="#4385f3" d="M 722.5,3.5 C 736.088,4.48132 749.754,4.81466 763.5,4.5C 763.5,17.5 763.5,30.5 763.5,43.5C 749.833,43.5 736.167,43.5 722.5,43.5C 722.5,30.1667 722.5,16.8333 722.5,3.5 Z"/></g>
<g><path style="opacity:1" fill="#4385f2" d="M 20.5,57.5 C 32.8378,57.3335 45.1712,57.5001 57.5,58C 69.7694,90.1366 81.2694,122.637 92,155.5C 103.545,123.029 115.378,90.696 127.5,58.5C 139.12,57.3548 150.787,57.1881 162.5,58C 163,58.5 163.5,59 164,59.5C 175.068,90.8697 186.234,122.203 197.5,153.5C 209.605,122.432 221.105,91.0991 232,59.5C 232.75,58.8742 233.584,58.3742 234.5,58C 245.833,57.3333 257.167,57.3333 268.5,58C 269.308,58.3076 269.975,58.8076 270.5,59.5C 253.307,108.252 235.64,156.752 217.5,205C 204.167,205.667 190.833,205.667 177.5,205C 165.982,176.102 155.149,146.936 145,117.5C 133.745,146.427 122.578,175.427 111.5,204.5C 97.6036,205.822 83.7703,205.822 70,204.5C 52.7565,156.358 35.5898,108.192 18.5,60C 19.0556,58.9889 19.7222,58.1556 20.5,57.5 Z"/></g>
<g><path style="opacity:1" fill="#4385f3" d="M 304.5,124.5 C 312.994,123.397 321.327,121.563 329.5,119C 344.833,118.667 360.167,118.333 375.5,118C 376.493,113.479 376.493,109.146 375.5,105C 374.255,104.209 372.922,103.709 371.5,103.5C 369.326,99.1604 365.993,95.9938 361.5,94C 339.887,88.2415 319.72,91.4081 301,103.5C 295.745,94.6575 290.745,85.6575 286,76.5C 285.289,74.6332 285.789,73.1332 287.5,72C 318.055,55.2126 350.055,51.8793 383.5,62C 404.589,70.7702 416.089,86.6036 418,109.5C 418.829,141.405 418.662,173.238 417.5,205C 404.5,205.667 391.5,205.667 378.5,205C 377.572,199.981 377.239,195.148 377.5,190.5C 369.835,199.315 360.168,204.481 348.5,206C 328.897,209.613 310.897,205.946 294.5,195C 277.504,177.731 275.004,158.564 287,137.5C 291.602,131.383 297.436,127.049 304.5,124.5 Z M 341.5,143.5 C 352.505,143.333 363.505,143.5 374.5,144C 377.796,162.358 370.129,173.358 351.5,177C 342.456,178.654 334.122,176.987 326.5,172C 321.78,165.19 321.28,158.023 325,150.5C 329.992,146.725 335.492,144.392 341.5,143.5 Z"/></g>
<g><path style="opacity:1" fill="#4285f3" d="M 764.5,79.5 C 764.832,121.337 764.499,163.003 763.5,204.5C 749.921,204.823 736.421,204.49 723,203.5C 722.333,155.833 722.333,108.167 723,60.5C 723.75,59.8742 724.584,59.3742 725.5,59C 737.833,58.3333 750.167,58.3333 762.5,59C 763.15,65.9323 763.817,72.7656 764.5,79.5 Z"/></g>
<g><path style="opacity:0.318" fill="#4e7ed0" d="M 459.5,2.5 C 459.179,4.04814 458.179,4.71481 456.5,4.5C 456.167,70.8367 456.5,137.17 457.5,203.5C 470.784,204.482 484.117,204.815 497.5,204.5C 483.765,205.83 469.931,205.83 456,204.5C 455.5,137.501 455.333,70.5008 455.5,3.5C 456.959,3.56745 458.292,3.23411 459.5,2.5 Z"/></g>
<g><path style="opacity:0.569" fill="#5688da" d="M 576.5,3.5 C 577.5,3.5 578.5,3.5 579.5,3.5C 579.832,70.6687 579.499,137.669 578.5,204.5C 578.667,138.166 578.5,71.8325 578,5.5C 577.283,4.9558 576.783,4.28913 576.5,3.5 Z"/></g>
<g><path style="opacity:0.267" fill="#5182d1" d="M 613.5,109.5 C 638.502,109.333 663.502,109.5 688.5,110C 689.654,121.424 689.82,132.924 689,144.5C 663.572,145.661 638.072,145.828 612.5,145C 611.844,139.245 611.51,133.412 611.5,127.5C 611.544,121.259 612.211,115.259 613.5,109.5 Z"/></g>
<g><path style="opacity:1" fill="#4185f4" d="M 614.5,110.5 C 638.836,110.333 663.169,110.5 687.5,111C 688.653,121.757 688.82,132.59 688,143.5C 663.239,144.661 638.406,144.827 613.5,144C 612.844,138.579 612.511,133.079 612.5,127.5C 612.548,121.59 613.214,115.924 614.5,110.5 Z"/></g>
<g><path style="opacity:0.173" fill="#5183d5" d="M 371.5,103.5 C 372.922,103.709 374.255,104.209 375.5,105C 376.493,109.146 376.493,113.479 375.5,118C 360.167,118.333 344.833,118.667 329.5,119C 321.327,121.563 312.994,123.397 304.5,124.5C 311.972,120.85 319.972,118.683 328.5,118C 343.83,117.5 359.163,117.333 374.5,117.5C 375.09,112.4 374.09,107.733 371.5,103.5 Z"/></g>
<g><path style="opacity:0.255" fill="#5484d6" d="M 950.5,3.5 C 951.665,70.3321 951.832,137.332 951,204.5C 937.402,205.83 923.902,205.83 910.5,204.5C 923.171,204.667 935.838,204.5 948.5,204C 949,203.5 949.5,203 950,202.5C 950.5,136.168 950.667,69.8342 950.5,3.5 Z"/></g>
<g><path style="opacity:0.306" fill="#4e7ed0" d="M 764.5,79.5 C 763.817,72.7656 763.15,65.9323 762.5,59C 750.167,58.3333 737.833,58.3333 725.5,59C 724.584,59.3742 723.75,59.8742 723,60.5C 722.333,108.167 722.333,155.833 723,203.5C 736.421,204.49 749.921,204.823 763.5,204.5C 749.765,205.83 735.931,205.83 722,204.5C 721.167,155.83 721.333,107.163 722.5,58.5C 736.121,57.3516 749.788,57.1849 763.5,58C 764.48,65.0787 764.813,72.2454 764.5,79.5 Z"/></g>
</svg>
