<?xml version="1.0" encoding="UTF-8"?>
<!DOCTYPE svg PUBLIC "-//W3C//DTD SVG 1.1//EN" "http://www.w3.org/Graphics/SVG/1.1/DTD/svg11.dtd">
<svg xmlns="http://www.w3.org/2000/svg" version="1.1" width="691px" height="249px" style="shape-rendering:geometricPrecision; text-rendering:geometricPrecision; image-rendering:optimizeQuality; fill-rule:evenodd; clip-rule:evenodd" xmlns:xlink="http://www.w3.org/1999/xlink">
<g><path style="opacity:0.985" fill="#f7f7f7" d="M 155.5,179.5 C 155.631,178.761 155.464,178.094 155,177.5C 154.043,180.022 152.543,182.189 150.5,184C 146.799,186.903 142.799,189.07 138.5,190.5C 138.5,191.167 138.167,191.5 137.5,191.5C 137.389,190.883 137.056,190.383 136.5,190C 122.833,189.333 109.167,189.333 95.5,190C 96.056,190.383 96.3893,190.883 96.5,191.5C 88.7339,189.908 85.5672,185.241 87,177.5C 87.7918,174.894 89.2918,172.894 91.5,171.5C 91.3691,172.376 91.7025,173.043 92.5,173.5C 106.785,172.517 121.118,172.184 135.5,172.5C 137.229,171.883 138.729,170.883 140,169.5C 140.698,163.516 141.198,157.516 141.5,151.5C 140.27,141.663 140.27,131.829 141.5,122C 141.067,115.256 140.401,108.589 139.5,102C 139.944,100.467 140.277,98.9667 140.5,97.5C 139.386,96.2241 138.386,96.2241 137.5,97.5C 134.286,97.7435 130.952,97.4102 127.5,96.5C 125.44,94.8463 122.94,93.8463 120,93.5C 108.53,94.1767 97.0301,94.8433 85.5,95.5C 75.3082,94.803 65.1415,94.1363 55,93.5C 49.936,94.6971 44.7693,95.5304 39.5,96C 45.1569,96.4994 50.8236,96.6661 56.5,96.5C 46.5465,97.5049 36.8798,97.5049 27.5,96.5C 25.2336,98.1933 24.9003,100.36 26.5,103C 24.8542,104.555 24.5209,106.221 25.5,108C 24.1772,108.816 23.5106,109.983 23.5,111.5C 21.4204,112.946 19.0871,113.946 16.5,114.5C 14.2706,113.423 11.9372,112.756 9.5,112.5C 7.46095,111.089 6.46095,109.089 6.5,106.5C 7.11742,106.389 7.61742,106.056 8,105.5C 8.1855,92.7879 8.6855,80.1212 9.5,67.5C 7.91374,65.8273 7.24707,63.8273 7.5,61.5C 11.5,61.1667 11.5,60.8333 7.5,60.5C 8.80611,53.8854 12.1394,48.5521 17.5,44.5C 21.1212,41.8563 25.1212,40.023 29.5,39C 57.5,38.3333 85.5,38.3333 113.5,39C 125.822,43.461 131.822,52.2943 131.5,65.5C 131.44,69.0047 131.106,72.5047 130.5,76C 144.144,75.0723 153.644,80.9056 159,93.5C 160.036,100.621 160.536,107.788 160.5,115C 159.54,131.294 159.54,147.794 160.5,164.5C 160.194,167.532 159.694,170.532 159,173.5C 158.576,176.025 157.41,178.025 155.5,179.5 Z M 108.5,59.5 C 109.431,61.0332 110.098,62.6998 110.5,64.5C 109.56,68.4953 109.394,72.4953 110,76.5C 85.0897,76.408 60.2563,76.408 35.5,76.5C 29.1982,74.8993 26.6982,70.8993 28,64.5C 28.8333,62.3333 30.3333,60.8333 32.5,60C 57.8311,59.5 83.1645,59.3334 108.5,59.5 Z"/></g>
<g><path style="opacity:0.5" fill="#fefefe" d="M 7.5,60.5 C 11.5,60.8333 11.5,61.1667 7.5,61.5C 7.24707,63.8273 7.91374,65.8273 9.5,67.5C 8.6855,80.1212 8.1855,92.7879 8,105.5C 7.61742,106.056 7.11742,106.389 6.5,106.5C 6.17047,90.9909 6.5038,75.6576 7.5,60.5 Z"/></g>
<g><path style="opacity:0.787" fill="#eaeaea" d="M 108.5,59.5 C 83.1645,59.3334 57.8311,59.5 32.5,60C 30.3333,60.8333 28.8333,62.3333 28,64.5C 26.6982,70.8993 29.1982,74.8993 35.5,76.5C 37.6569,77.0533 37.4903,78.0533 35,79.5C 32.1318,78.6392 29.7985,76.9725 28,74.5C 26.6361,75.2583 25.4695,74.7583 24.5,73C 25.727,71.4126 25.3937,70.0793 23.5,69C 24.1613,65.5502 25.9946,62.3835 29,59.5C 31.3738,57.7536 33.8738,57.4202 36.5,58.5C 59.0298,57.8384 81.5298,57.1717 104,56.5C 106.473,57.1041 107.973,58.1041 108.5,59.5 Z"/></g>
<g><path style="opacity:0.997" fill="#fdfdfd" d="M 409.5,78.5 C 416.833,78.5 424.167,78.5 431.5,78.5C 431.5,111.5 431.5,144.5 431.5,177.5C 424.167,177.5 416.833,177.5 409.5,177.5C 409.5,144.5 409.5,111.5 409.5,78.5 Z"/></g>
<g><path style="opacity:0.995" fill="#fefefe" d="M 449.5,78.5 C 456.833,78.5 464.167,78.5 471.5,78.5C 471.5,111.5 471.5,144.5 471.5,177.5C 464.167,177.5 456.833,177.5 449.5,177.5C 449.5,144.5 449.5,111.5 449.5,78.5 Z"/></g>
<g><path style="opacity:0.989" fill="#fdfdfd" d="M 245.5,127.5 C 245.216,125.123 245.216,122.956 245.5,121C 243.787,119.075 242.453,116.908 241.5,114.5C 240.056,116.608 239.39,118.941 239.5,121.5C 233.907,139.945 227.907,158.278 221.5,176.5C 213.187,177.665 204.853,177.832 196.5,177C 186.115,145.961 176.115,114.794 166.5,83.5C 174.5,83.5 182.5,83.5 190.5,83.5C 196.531,104.62 203.031,125.62 210,146.5C 217.541,125.71 224.375,104.71 230.5,83.5C 238.167,83.5 245.833,83.5 253.5,83.5C 259.486,104.627 265.986,125.627 273,146.5C 280.526,125.754 287.36,104.754 293.5,83.5C 301.174,83.3336 308.841,83.5003 316.5,84C 306.115,115.039 296.115,146.206 286.5,177.5C 277.833,177.5 269.167,177.5 260.5,177.5C 255.5,160.833 250.5,144.167 245.5,127.5 Z"/></g>
<g><path style="opacity:0.986" fill="#fefefe" d="M 542.5,83.5 C 550.167,83.5 557.833,83.5 565.5,83.5C 565.5,114.833 565.5,146.167 565.5,177.5C 557.833,177.5 550.167,177.5 542.5,177.5C 542.5,146.167 542.5,114.833 542.5,83.5 Z"/></g>
<g><path style="opacity:0.989" fill="#fefefe" d="M 676.5,110.5 C 679.742,121.703 680.242,133.037 678,144.5C 677.727,146.329 676.893,147.829 675.5,149C 676.094,149.464 676.761,149.631 677.5,149.5C 671.237,163.591 660.571,172.425 645.5,176C 625.546,177.439 605.546,177.939 585.5,177.5C 585.5,175.833 585.5,174.167 585.5,172.5C 586.339,171.359 587.006,170.026 587.5,168.5C 587.39,144.321 587.224,119.987 587,95.5C 586.827,101.016 586.327,106.349 585.5,111.5C 585.5,102.167 585.5,92.8333 585.5,83.5C 605.546,83.0613 625.546,83.5613 645.5,85C 660.25,88.2596 670.583,96.7596 676.5,110.5 Z M 608.5,101.5 C 615.841,101.334 623.174,101.5 630.5,102C 647.562,103.895 656.562,113.395 657.5,130.5C 656.562,147.605 647.562,157.105 630.5,159C 623.174,159.5 615.841,159.666 608.5,159.5C 608.5,140.167 608.5,120.833 608.5,101.5 Z"/></g>
<g><path style="opacity:0.782" fill="#f3f3f3" d="M 127.5,96.5 C 103.997,97.5783 80.3305,97.5783 56.5,96.5C 50.8236,96.6661 45.1569,96.4994 39.5,96C 44.7693,95.5304 49.936,94.6971 55,93.5C 65.1415,94.1363 75.3082,94.803 85.5,95.5C 97.0301,94.8433 108.53,94.1767 120,93.5C 122.94,93.8463 125.44,94.8463 127.5,96.5 Z"/></g>
<g><path style="opacity:0.65" fill="#f6f6f6" d="M 585.5,172.5 C 585.5,152.167 585.5,131.833 585.5,111.5C 586.327,106.349 586.827,101.016 587,95.5C 587.224,119.987 587.39,144.321 587.5,168.5C 587.006,170.026 586.339,171.359 585.5,172.5 Z"/></g>
<g><path style="opacity:0.428" fill="#efefef" d="M 135.5,172.5 C 135.5,171.833 135.5,171.167 135.5,170.5C 136.172,169.733 137.005,169.066 138,168.5C 138.822,144.761 138.656,121.094 137.5,97.5C 138.386,96.2241 139.386,96.2241 140.5,97.5C 140.277,98.9667 139.944,100.467 139.5,102C 140.401,108.589 141.067,115.256 141.5,122C 140.27,131.829 140.27,141.663 141.5,151.5C 141.198,157.516 140.698,163.516 140,169.5C 138.729,170.883 137.229,171.883 135.5,172.5 Z"/></g>
<g><path style="opacity:0.489" fill="#ebebeb" d="M 27.5,96.5 C 27.6653,100.182 27.4986,103.848 27,107.5C 26.7996,109.32 25.9663,110.653 24.5,111.5C 24.1667,111.5 23.8333,111.5 23.5,111.5C 23.5106,109.983 24.1772,108.816 25.5,108C 24.5209,106.221 24.8542,104.555 26.5,103C 24.9003,100.36 25.2336,98.1933 27.5,96.5 Z"/></g>
<g><path style="opacity:0.976" fill="#fefefe" d="M 390.5,124.5 C 389.903,124.735 389.57,125.235 389.5,126C 390.312,142.468 390.812,158.968 391,175.5C 391.383,174.944 391.883,174.611 392.5,174.5C 392.5,175.5 392.5,176.5 392.5,177.5C 385.5,177.5 378.5,177.5 371.5,177.5C 371.662,175.473 371.495,173.473 371,171.5C 367.896,174.933 364.063,177.1 359.5,178C 350.99,179.114 342.656,178.448 334.5,176C 321.705,167.604 319.205,156.77 327,143.5C 331.427,139.537 336.594,137.037 342.5,136C 351.494,135.5 360.494,135.334 369.5,135.5C 369.789,128.895 366.789,124.729 360.5,123C 355.833,122.333 351.167,122.333 346.5,123C 341.734,124.732 337.067,126.399 332.5,128C 330.206,123.912 328.039,119.745 326,115.5C 325.316,114.216 325.483,113.049 326.5,112C 342.925,103.631 359.925,102.298 377.5,108C 384.106,111.714 388.44,117.214 390.5,124.5 Z M 354.5,147.5 C 359.5,147.5 364.5,147.5 369.5,147.5C 370.678,158.163 365.844,163.83 355,164.5C 345.046,163.091 342.546,158.258 347.5,150C 349.927,149.098 352.26,148.264 354.5,147.5 Z"/></g>
<g><path style="opacity:0.378" fill="#dbdbdb" d="M 23.5,111.5 C 23.8333,111.5 24.1667,111.5 24.5,111.5C 21.4006,115.24 17.4006,116.407 12.5,115C 11.0577,114.623 10.0577,113.79 9.5,112.5C 11.9372,112.756 14.2706,113.423 16.5,114.5C 19.0871,113.946 21.4204,112.946 23.5,111.5 Z"/></g>
<g><path style="opacity:0.52" fill="#ededed" d="M 245.5,127.5 C 244.188,124.592 242.855,121.592 241.5,118.5C 240.824,119.602 240.158,120.602 239.5,121.5C 239.39,118.941 240.056,116.608 241.5,114.5C 242.453,116.908 243.787,119.075 245.5,121C 245.216,122.956 245.216,125.123 245.5,127.5 Z"/></g>
<g><path style="opacity:0.996" fill="#f6f6f6" d="M 73.5,141.5 C 73.4142,142.496 73.7476,143.329 74.5,144C 73.8333,144.333 73.1667,144.667 72.5,145C 73.0774,146.714 74.5774,148.214 77,149.5C 78.622,156.124 77.122,161.791 72.5,166.5C 72.9569,167.298 73.6236,167.631 74.5,167.5C 68.7028,173.798 62.7028,179.965 56.5,186C 54.5952,187.421 52.5952,188.588 50.5,189.5C 46.38,189.415 42.0466,189.249 37.5,189C 32.6214,187.452 28.9547,184.452 26.5,180C 25.552,179.517 24.552,179.351 23.5,179.5C 17.837,174.67 12.6704,169.337 8,163.5C 5.52708,156.171 6.19374,149.171 10,142.5C 17.1667,136.667 23.6667,130.167 29.5,123C 38.2341,117.06 46.9008,117.06 55.5,123C 61.7577,129.089 67.7577,135.255 73.5,141.5 Z M 28.5,154.5 C 32.8123,149.521 37.479,144.854 42.5,140.5C 47.7051,145.207 52.7051,150.04 57.5,155C 53.3333,160.5 48.5,165.333 43,169.5C 37.2634,165.265 32.43,160.265 28.5,154.5 Z"/></g>
<g><path style="opacity:0.956" fill="#fefefe" d="M 486.5,130.5 C 499.5,130.5 512.5,130.5 525.5,130.5C 525.5,136.5 525.5,142.5 525.5,148.5C 512.5,148.5 499.5,148.5 486.5,148.5C 486.5,142.5 486.5,136.5 486.5,130.5 Z"/></g>
<g><path style="opacity:0.606" fill="#f3f3f3" d="M 676.5,110.5 C 677.793,111.842 678.626,113.509 679,115.5C 681.357,127.019 680.857,138.352 677.5,149.5C 676.761,149.631 676.094,149.464 675.5,149C 676.893,147.829 677.727,146.329 678,144.5C 680.242,133.037 679.742,121.703 676.5,110.5 Z"/></g>
<g><path style="opacity:0.098" fill="#dbdbdb" d="M 114.5,122.5 C 126.02,124.545 129.186,130.545 124,140.5C 116.993,146.062 110.993,145.062 106,137.5C 104.707,130.081 107.54,125.081 114.5,122.5 Z"/></g>
<g><path style="opacity:1" fill="#f5f5f5" d="M 113.5,124.5 C 122.202,124.555 125.702,128.888 124,137.5C 123.535,138.931 122.701,140.097 121.5,141C 111.899,143.715 107.399,140.215 108,130.5C 109.36,127.977 111.193,125.977 113.5,124.5 Z"/></g>
<g><path style="opacity:0.816" fill="#f3f4f4" d="M 390.5,124.5 C 391.228,127.079 391.728,129.746 392,132.5C 392.5,146.496 392.667,160.496 392.5,174.5C 391.883,174.611 391.383,174.944 391,175.5C 390.812,158.968 390.312,142.468 389.5,126C 389.57,125.235 389.903,124.735 390.5,124.5 Z"/></g>
<g><path style="opacity:0.49" fill="#e7e9e8" d="M 73.5,141.5 C 80.954,149.83 81.2873,158.497 74.5,167.5C 73.6236,167.631 72.9569,167.298 72.5,166.5C 77.122,161.791 78.622,156.124 77,149.5C 74.5774,148.214 73.0774,146.714 72.5,145C 73.1667,144.667 73.8333,144.333 74.5,144C 73.7476,143.329 73.4142,142.496 73.5,141.5 Z"/></g>
<g><path style="opacity:0.895" fill="#e1e1e3" d="M 135.5,170.5 C 135.5,171.167 135.5,171.833 135.5,172.5C 121.118,172.184 106.785,172.517 92.5,173.5C 91.7025,173.043 91.3691,172.376 91.5,171.5C 93.0443,171.297 94.3777,170.63 95.5,169.5C 108.784,170.482 122.117,170.815 135.5,170.5 Z"/></g>
<g><path style="opacity:0.067" fill="#ececec" d="M 155.5,179.5 C 151.677,185.986 146.01,189.652 138.5,190.5C 142.799,189.07 146.799,186.903 150.5,184C 152.543,182.189 154.043,180.022 155,177.5C 155.464,178.094 155.631,178.761 155.5,179.5 Z"/></g>
<g><path style="opacity:0.539" fill="#e1e1e3" d="M 23.5,179.5 C 24.552,179.351 25.552,179.517 26.5,180C 28.9547,184.452 32.6214,187.452 37.5,189C 42.0466,189.249 46.38,189.415 50.5,189.5C 39.0837,193.313 30.0837,189.979 23.5,179.5 Z"/></g>
<g><path style="opacity:0.534" fill="#e3e2e5" d="M 137.5,191.5 C 123.833,191.5 110.167,191.5 96.5,191.5C 96.3893,190.883 96.056,190.383 95.5,190C 109.167,189.333 122.833,189.333 136.5,190C 137.056,190.383 137.389,190.883 137.5,191.5 Z"/></g>
</svg>
