<?xml version="1.0" encoding="UTF-8"?>
<svg version="1.1" xmlns="http://www.w3.org/2000/svg" width="415" height="390">
<path d="M0 0 C1.43321316 -0.0029964 2.86642552 -0.00640004 4.29963684 -0.01017761 C8.17368229 -0.01897194 12.04770562 -0.02135377 15.92176008 -0.0219934 C18.34675416 -0.02270639 20.77174269 -0.0248454 23.19673538 -0.02749062 C31.66973474 -0.03672827 40.14271842 -0.0408274 48.61572266 -0.04003906 C56.49325955 -0.0394384 64.37072794 -0.04999205 72.2482475 -0.06578273 C79.02982858 -0.07888848 85.81138735 -0.0842217 92.59298098 -0.08358365 C96.63526805 -0.0833296 100.67749416 -0.0861296 104.71976852 -0.0967617 C108.52341901 -0.10649419 112.32695086 -0.10648684 116.1306057 -0.09924507 C117.51966336 -0.09820567 118.90872862 -0.10052346 120.29777336 -0.10660553 C136.53742238 -0.17305956 148.44625003 2.32965386 160.49853516 13.75854492 C163.84454055 17.29558523 166.37457607 20.91512014 168.75634766 25.14526367 C169.12679199 25.7864917 169.49723633 26.42771973 169.87890625 27.08837891 C174.12660897 35.8476231 173.19264063 45.28513913 173.00634766 54.77026367 C172.98624988 56.55539986 172.96800491 58.34055792 172.95166016 60.12573242 C172.90792852 64.46612327 172.83908354 68.80544827 172.75634766 73.14526367 C173.9088501 73.12641113 175.06135254 73.10755859 176.2487793 73.08813477 C177.78384986 73.07288378 179.31892509 73.05809723 180.85400391 73.04370117 C181.61088501 73.03008545 182.36776611 73.01646973 183.14758301 73.00244141 C195.35225606 72.91679458 206.60161829 78.11406021 215.50634766 86.39526367 C225.76896537 97.38401 228.21173981 108.94880577 228.17626953 123.54663086 C228.18362166 124.98498183 228.19221119 126.42332692 228.20193481 127.86166382 C228.22404289 131.7462302 228.2270868 135.63058378 228.2251873 139.51520443 C228.22506707 142.77022954 228.23365293 146.02521042 228.24196482 149.28022313 C228.26116155 156.96768891 228.26409685 164.65504613 228.25732422 172.3425293 C228.25069087 180.24347579 228.27352769 188.14395456 228.31063795 196.04480624 C228.34144543 202.85365425 228.35268293 209.66235268 228.34880114 216.47126889 C228.34674447 220.52661071 228.3520432 224.5815886 228.37669373 228.63686371 C228.39914132 232.45552229 228.39693605 236.27342697 228.3767662 240.09209061 C228.37338731 241.48311843 228.3783085 242.87419883 228.39274979 244.26515579 C228.5388641 259.39854982 224.01187855 270.38072124 213.72900391 281.29760742 C205.30995982 289.47306253 194.95094715 293.28379828 183.35693359 293.32226562 C182.49967178 293.32883682 181.64240997 293.33540802 180.75917053 293.34217834 C177.91968701 293.3619026 175.08025638 293.37357234 172.24072266 293.38354492 C170.78510799 293.38965821 170.78510799 293.38965821 169.30008698 293.395895 C164.1632763 293.41675255 159.0264923 293.43105534 153.88964844 293.44042969 C148.58901204 293.45149023 143.28879588 293.48588705 137.98830795 293.52560139 C133.9081546 293.55177096 129.8281013 293.56012186 125.7478714 293.56371117 C123.79428521 293.56857664 121.84070348 293.58018952 119.8871994 293.59874916 C117.14890939 293.62314658 114.4117057 293.62217446 111.67333984 293.61523438 C110.46983635 293.63444946 110.46983635 293.63444946 109.24201965 293.65405273 C103.64447177 293.60251324 100.41128069 292.26252788 95.75634766 289.14526367 C95.75634766 288.48526367 95.75634766 287.82526367 95.75634766 287.14526367 C95.09634766 287.14526367 94.43634766 287.14526367 93.75634766 287.14526367 C91.14019252 282.61197897 90.34725628 279.30442624 90.38134766 274.08276367 C90.37361328 272.89553711 90.36587891 271.70831055 90.35791016 270.48510742 C90.78384832 266.91474343 91.56495692 264.97269221 93.75634766 262.14526367 C94.41634766 262.14526367 95.07634766 262.14526367 95.75634766 262.14526367 C96.08634766 261.15526367 96.41634766 260.16526367 96.75634766 259.14526367 C101.33285431 256.17835468 105.38490793 255.71500874 110.7019043 255.76049805 C111.47503464 255.75512527 112.24816498 255.7497525 113.04472351 255.74421692 C114.71431551 255.73447351 116.38395794 255.73148433 118.05357552 255.73457336 C120.69786228 255.73906696 123.34148535 255.72500906 125.98570251 255.70617676 C132.54970012 255.66324081 139.11368201 255.65214545 145.67779541 255.63995361 C151.23235124 255.62842002 156.78660318 255.60484889 162.34103203 255.56526184 C164.94298487 255.55170139 167.54452538 255.55585992 170.14649963 255.56066895 C171.74440027 255.55132781 173.34229636 255.54115885 174.94018555 255.5300293 C175.66084198 255.53617752 176.38149841 255.54232574 177.12399292 255.54866028 C181.50676569 255.4951096 184.28134649 254.8508689 187.75634766 252.14526367 C189.98656937 248.7999311 190.01165827 247.71370771 190.03050232 243.80691528 C190.04546501 242.14556549 190.04546501 242.14556549 190.06072998 240.45065308 C190.06139465 239.23499664 190.06205933 238.01934021 190.06274414 236.7668457 C190.07522942 234.84702881 190.07522942 234.84702881 190.08796692 232.88842773 C190.10992221 229.37597626 190.11871216 225.86361184 190.12379336 222.35109949 C190.12743574 220.15648903 190.13367517 217.96190141 190.14079475 215.76729965 C190.16529288 208.11056261 190.17834191 200.45389336 190.18188477 192.79711914 C190.18552031 185.66071714 190.21541564 178.52474514 190.25728935 171.38847458 C190.29198294 165.26098313 190.30743304 159.13363424 190.3081308 153.00604522 C190.30892395 149.34654366 190.31767916 145.68748005 190.34612846 142.02807999 C190.37715466 137.94590157 190.36825418 133.8647477 190.35571289 129.7824707 C190.37054718 128.57086273 190.38538147 127.35925476 190.40066528 126.1109314 C190.39090164 124.99772522 190.381138 123.88451904 190.37107849 122.73757935 C190.37409548 121.29021739 190.37409548 121.29021739 190.37717342 119.8136158 C189.47386264 115.93112352 187.94309705 114.49725742 184.75634766 112.14526367 C181.86339018 111.65536708 179.56109927 111.47328955 176.67428589 111.51948547 C175.86514807 111.51254093 175.05601025 111.50559638 174.2223531 111.4984414 C171.51299084 111.48118825 168.80504262 111.49948276 166.09570312 111.51757812 C164.15224013 111.51239957 162.20878197 111.50499977 160.26533508 111.49554443 C156.08006873 111.479971 151.89520284 111.48016042 147.70992661 111.49254799 C141.08620714 111.51208306 134.46284374 111.4968939 127.83914185 111.47709656 C117.35508122 111.44992999 106.87116537 111.44645774 96.3870765 111.45286959 C77.63319713 111.46379431 58.87936234 111.43913535 40.1255275 111.39912194 C33.54778364 111.38608006 26.97017265 111.38477527 20.39242244 111.39325488 C16.28925321 111.39689334 12.18611755 111.39256365 8.0829525 111.38641357 C6.18797493 111.38533286 4.29299168 111.38766229 2.39802361 111.39375877 C-20.60582467 111.46417751 -20.60582467 111.46417751 -27.24365234 108.14526367 C-27.21223145 108.9212793 -27.18081055 109.69729492 -27.1484375 110.49682617 C-27.02296688 114.0460034 -26.94544077 117.59471302 -26.86865234 121.14526367 C-26.81837891 122.36600586 -26.76810547 123.58674805 -26.71630859 124.84448242 C-26.6028346 131.84204544 -26.94209765 136.31604807 -31.6940918 141.64331055 C-32.20544678 142.13895508 -32.71680176 142.63459961 -33.24365234 143.14526367 C-34.08927734 143.97026367 -34.93490234 144.79526367 -35.80615234 145.64526367 C-41.25048157 148.02097097 -46.41120658 148.08529156 -52.24365234 147.14526367 C-57.84667046 144.5687577 -61.25734864 140.47143457 -64.24365234 135.14526367 C-64.81071388 132.16637078 -64.80123137 129.25095172 -64.77709961 126.22509766 C-64.78571518 125.34777481 -64.79433075 124.47045197 -64.8032074 123.56654358 C-64.82585247 120.67451191 -64.81912685 117.78345128 -64.81005859 114.89135742 C-64.81529782 112.86841038 -64.82157539 110.84546579 -64.82884216 108.82252502 C-64.83924602 104.58159907 -64.83468952 100.34100858 -64.82006836 96.10009766 C-64.80295134 90.69567851 -64.8262883 85.29232964 -64.86155796 79.88803005 C-64.8836545 75.70721033 -64.88205979 71.52664134 -64.87379265 67.34578133 C-64.87297846 65.35530492 -64.87973889 63.3648091 -64.89456367 61.37438774 C-65.00583236 43.71894217 -62.00010608 30.87736278 -49.74365234 17.39526367 C-48.91865234 16.65276367 -48.09365234 15.91026367 -47.24365234 15.14526367 C-46.76798828 14.67733398 -46.29232422 14.2094043 -45.80224609 13.72729492 C-32.75520505 1.49765885 -16.96681113 -0.00710237 0 0 Z M-24.60407734 45.76845169 C-27.21041902 49.63210631 -27.92505505 53.33128342 -27.68505859 57.87573242 C-26.58941896 63.50906539 -23.58040501 67.36281479 -19.04382324 70.72990417 C-12.99062984 74.4206286 -6.4329453 73.80498073 0.43408203 73.71289062 C1.91307527 73.71147843 3.39207202 73.71227547 4.87106323 73.71510315 C8.86664072 73.71653207 12.86146085 73.68722838 16.85686302 73.65223336 C21.03950489 73.6208817 25.22216598 73.61803221 29.40490723 73.61210632 C37.31673454 73.59659365 45.22821455 73.55560037 53.13988924 73.50535887 C62.15073686 73.44938491 71.16160145 73.42195871 80.17257977 73.3968817 C98.70069896 73.344682 117.22849534 73.25679017 135.75634766 73.14526367 C135.88060864 69.1253252 135.97099177 65.10614088 136.03100586 61.0847168 C136.05604045 59.71895864 136.09007983 58.353333 136.13354492 56.98803711 C136.69474362 48.31541561 136.69474362 48.31541561 134.102005 40.26409912 C128.69195902 36.83786744 123.15328319 37.3094179 116.91333008 37.36889648 C115.48715101 37.36076205 114.06098456 37.35007657 112.63484192 37.33703613 C108.76664078 37.30970282 104.89940076 37.32028075 101.031183 37.33931065 C96.97765658 37.35452042 92.92421148 37.34040726 88.87068176 37.33099365 C82.0605292 37.32007943 75.25076708 37.33445473 68.44067383 37.36303711 C60.57934226 37.39565168 52.71894532 37.38514246 44.85763663 37.35207868 C38.09984849 37.32479861 31.34234084 37.32103503 24.58451539 37.33671069 C20.55217682 37.34604158 16.52027655 37.34737783 12.48796654 37.32749176 C8.69298699 37.3100838 4.899204 37.32231566 1.10435295 37.3568573 C-0.28390776 37.36475294 -1.67227016 37.36257704 -3.06048965 37.34928131 C-12.51988036 37.26707793 -18.40537577 38.37248487 -24.60407734 45.76845169 Z " fill="#000000" transform="translate(122.24365234375,28.854736328125)"/>
<path d="M0 0 C1.61294084 1.58066234 3.20960634 3.17807007 4.79125977 4.79003906 C5.65026382 5.64567444 6.50926788 6.50130981 7.39430237 7.38287354 C9.19204888 9.18091686 10.9824299 10.98635259 12.765625 12.79882812 C15.48103943 15.55401365 18.22470302 18.27853205 20.97290039 21.00097656 C22.72661301 22.7622472 24.47862581 24.52521235 26.22875977 26.29003906 C27.04025986 27.09455505 27.85175995 27.89907104 28.68785095 28.72796631 C37.80420073 38.07157247 41.32956098 46.88706925 41.36425781 59.82641602 C41.21563447 69.41022424 38.12693402 76.44352385 32.04516602 83.80566406 C31.38516602 83.80566406 30.72516602 83.80566406 30.04516602 83.80566406 C29.55016602 85.29066406 29.55016602 85.29066406 29.04516602 86.80566406 C28.38516602 86.80566406 27.72516602 86.80566406 27.04516602 86.80566406 C26.55016602 88.29066406 26.55016602 88.29066406 26.04516602 89.80566406 C25.38516602 89.80566406 24.72516602 89.80566406 24.04516602 89.80566406 C23.55016602 91.29066406 23.55016602 91.29066406 23.04516602 92.80566406 C22.38516602 92.80566406 21.72516602 92.80566406 21.04516602 92.80566406 C21.04516602 93.46566406 21.04516602 94.12566406 21.04516602 94.80566406 C19.67016602 96.43066406 19.67016602 96.43066406 18.04516602 97.80566406 C17.38516602 97.80566406 16.72516602 97.80566406 16.04516602 97.80566406 C15.55016602 99.29066406 15.55016602 99.29066406 15.04516602 100.80566406 C14.38516602 100.80566406 13.72516602 100.80566406 13.04516602 100.80566406 C12.55016602 102.29066406 12.55016602 102.29066406 12.04516602 103.80566406 C11.38516602 103.80566406 10.72516602 103.80566406 10.04516602 103.80566406 C9.55016602 105.29066406 9.55016602 105.29066406 9.04516602 106.80566406 C8.38516602 106.80566406 7.72516602 106.80566406 7.04516602 106.80566406 C6.55016602 108.29066406 6.55016602 108.29066406 6.04516602 109.80566406 C5.38516602 109.80566406 4.72516602 109.80566406 4.04516602 109.80566406 C3.55016602 111.29066406 3.55016602 111.29066406 3.04516602 112.80566406 C2.38516602 112.80566406 1.72516602 112.80566406 1.04516602 112.80566406 C0.55016602 114.29066406 0.55016602 114.29066406 0.04516602 115.80566406 C-0.61483398 115.80566406 -1.27483398 115.80566406 -1.95483398 115.80566406 C-1.95483398 116.46566406 -1.95483398 117.12566406 -1.95483398 117.80566406 C-11.81687211 126.00120038 -21.51258795 127.80220497 -33.98120117 127.01269531 C-46.14664971 125.73655722 -55.29122118 115.78044902 -63.48999023 107.57128906 C-64.25411728 106.81144714 -65.01824432 106.05160522 -65.80552673 105.26873779 C-67.40201338 103.67794817 -68.99594856 102.08459411 -70.58740234 100.48876953 C-73.03346506 98.03951191 -75.4926689 95.60398074 -77.95288086 93.16894531 C-79.50772634 91.61636968 -81.06179176 90.06301237 -82.61499023 88.50878906 C-83.35233902 87.78065002 -84.08968781 87.05251099 -84.84938049 86.30230713 C-85.85689613 85.2854483 -85.85689613 85.2854483 -86.88476562 84.24804688 C-87.77670372 83.35705292 -87.77670372 83.35705292 -88.68666077 82.44805908 C-89.95483398 80.80566406 -89.95483398 80.80566406 -89.95483398 77.80566406 C-90.61483398 77.80566406 -91.27483398 77.80566406 -91.95483398 77.80566406 C-97.29296639 68.74990373 -97.27326442 57.98008823 -95.95483398 47.80566406 C-92.06518277 33.53836043 -77.60557231 22.26962246 -67.40112305 12.06665039 C-65.68696315 10.35027008 -63.98102285 8.62597608 -62.27514648 6.90136719 C-61.16365609 5.78694719 -60.051694 4.67299741 -58.93920898 3.55957031 C-58.44112732 3.05430313 -57.94304565 2.54903595 -57.42987061 2.02845764 C-41.08299652 -14.21461328 -17.55671744 -16.07182487 0 0 Z M-27.95483398 26.80566406 C-37.85483398 36.70566406 -47.75483398 46.60566406 -57.95483398 56.80566406 C-55.99384192 60.7276482 -54.24312815 62.7260495 -51.14233398 65.74316406 C-49.86422852 66.99419922 -49.86422852 66.99419922 -48.56030273 68.27050781 C-47.70049805 69.10710937 -46.84069336 69.94371094 -45.95483398 70.80566406 C-44.28545067 72.46960965 -42.61900003 74.13650052 -40.95483398 75.80566406 C-39.8443252 76.91650942 -38.73363739 78.02717583 -37.62280273 79.13769531 C-34.40014648 82.36035156 -31.17749023 85.58300781 -27.95483398 88.80566406 C-21.02672675 83.13992357 -14.81279256 76.77532767 -8.51733398 70.43066406 C-7.39321932 69.30152451 -6.26887225 68.17261629 -5.14428711 67.04394531 C-2.41178163 64.30051218 0.3175561 61.55396421 3.04516602 58.80566406 C2.38516602 57.48566406 1.72516602 56.16566406 1.04516602 54.80566406 C0.38516602 54.80566406 -0.27483398 54.80566406 -0.95483398 54.80566406 C-1.44983398 53.32066406 -1.44983398 53.32066406 -1.95483398 51.80566406 C-2.61483398 51.80566406 -3.27483398 51.80566406 -3.95483398 51.80566406 C-3.95483398 51.14566406 -3.95483398 50.48566406 -3.95483398 49.80566406 C-5.61698666 48.46670774 -7.28447006 47.13436264 -8.95483398 45.80566406 C-10.28816732 44.1389974 -11.62150065 42.47233073 -12.95483398 40.80566406 C-14.61017394 39.45829433 -16.27496172 38.12232071 -17.95483398 36.80566406 C-18.44983398 35.81566406 -18.44983398 35.81566406 -18.95483398 34.80566406 C-19.61483398 34.80566406 -20.27483398 34.80566406 -20.95483398 34.80566406 C-21.44983398 33.32066406 -21.44983398 33.32066406 -21.95483398 31.80566406 C-22.61483398 31.80566406 -23.27483398 31.80566406 -23.95483398 31.80566406 C-23.95483398 31.14566406 -23.95483398 30.48566406 -23.95483398 29.80566406 C-25.27483398 28.81566406 -26.59483398 27.82566406 -27.95483398 26.80566406 Z " fill="#000000" transform="translate(153.954833984375,195.1943359375)"/>
<path d="M0 0 C5.86437092 3.29368778 8.59605948 6.78817843 10.75 13.25 C11.45301892 19.57717029 10.44083879 24.01591575 6.75 29.25 C3.29720092 33.02189663 0.03760432 35.98561978 -5.25 36.25 C-6.36375 36.3325 -7.4775 36.415 -8.625 36.5 C-14.08209512 36.12364861 -17.7807549 34.45210963 -22 31 C-25.95629082 26.16453344 -27.81147304 21.44158959 -27.53515625 15.23046875 C-26.66900045 9.21483871 -23.87405692 5.0333193 -19.25 1.25 C-12.64507875 -2.36401351 -6.7991733 -3.19144869 0 0 Z " fill="#000000" transform="translate(276.25,194.75)"/>
</svg>
