<?xml version="1.0" encoding="UTF-8"?>
<!DOCTYPE svg PUBLIC "-//W3C//DTD SVG 1.1//EN" "http://www.w3.org/Graphics/SVG/1.1/DTD/svg11.dtd">
<svg xmlns="http://www.w3.org/2000/svg" version="1.1" width="385px" height="369px" style="shape-rendering:geometricPrecision; text-rendering:geometricPrecision; image-rendering:optimizeQuality; fill-rule:evenodd; clip-rule:evenodd" xmlns:xlink="http://www.w3.org/1999/xlink">
<g><path style="opacity:0.999" fill="#f8f8f8" d="M 250.5,27.5 C 249.262,27.81 249.262,28.31 250.5,29C 257.327,30.7469 263.66,33.5802 269.5,37.5C 270.107,37.3764 270.44,37.0431 270.5,36.5C 280.177,44.5313 285.51,54.8646 286.5,67.5C 285.341,78.3255 285.174,89.3255 286,100.5C 287.049,101.517 288.216,101.684 289.5,101C 288.584,100.722 287.918,100.222 287.5,99.5C 313.933,97.6179 331.767,108.951 341,133.5C 341.828,137.466 342.328,141.466 342.5,145.5C 341.448,145.351 340.448,145.517 339.5,146C 340.494,191.877 340.827,237.877 340.5,284C 339.604,289.585 337.938,294.918 335.5,300C 335.57,300.765 335.903,301.265 336.5,301.5C 328.423,315.211 316.423,322.877 300.5,324.5C 273.336,323.336 246.003,323.17 218.5,324C 220.058,324.21 221.391,324.71 222.5,325.5C 206.685,324.519 199.851,316.186 202,300.5C 203.464,292.37 208.297,287.536 216.5,286C 243.5,285.667 270.5,285.333 297.5,285C 299.584,284.303 301.251,283.136 302.5,281.5C 303.833,266.849 304.499,251.849 304.5,236.5C 304.5,221.33 304.167,206.33 303.5,191.5C 303.5,191.167 303.5,190.833 303.5,190.5C 305.01,181.382 305.677,172.048 305.5,162.5C 305.167,156.167 304.833,149.833 304.5,143.5C 303.893,143.624 303.56,143.957 303.5,144.5C 302.07,142.614 300.403,140.947 298.5,139.5C 299.043,139.44 299.376,139.107 299.5,138.5C 265.5,138.167 231.5,137.833 197.5,137.5C 161.306,137.145 125.306,137.145 89.5,137.5C 89.1667,137.5 88.8333,137.5 88.5,137.5C 86.3826,135.345 83.716,134.345 80.5,134.5C 80.6665,144.172 80.4998,153.839 80,163.5C 78.8443,167.496 76.3443,169.83 72.5,170.5C 72.5,171.5 72.5,172.5 72.5,173.5C 60.4099,178.968 51.0765,175.801 44.5,164C 43.7665,162.234 43.4332,160.401 43.5,158.5C 44.2679,159.263 44.7679,160.263 45,161.5C 45.1712,133.595 45.6712,105.761 46.5,78C 45.8742,77.2496 45.3742,76.4162 45,75.5C 44.7679,76.7375 44.2679,77.7375 43.5,78.5C 43.3738,73.7784 44.3738,69.4451 46.5,65.5C 48.8236,61.7263 51.3236,57.393 54,52.5C 56.8086,48.3903 59.9753,44.5569 63.5,41C 63.2716,40.6012 62.9382,40.4346 62.5,40.5C 63.5846,38.4131 65.2512,37.0798 67.5,36.5C 73.2929,33.7784 79.2929,31.2784 85.5,29C 84.9056,28.5357 84.2389,28.369 83.5,28.5C 88.1436,27.4736 92.8103,26.307 97.5,25C 145.833,24.3333 194.167,24.3333 242.5,25C 245.31,25.7823 247.977,26.6156 250.5,27.5 Z M 243.5,65.5 C 244.167,66.8333 245.167,67.8333 246.5,68.5C 247.452,78.7815 247.786,89.1148 247.5,99.5C 197.833,99.5 148.167,99.5 98.5,99.5C 95.7198,98.8049 93.0531,97.8049 90.5,96.5C 81.3831,88.3755 80.5497,79.3755 88,69.5C 89.5793,67.9588 91.4127,66.7922 93.5,66C 118.794,64.8567 144.127,64.3567 169.5,64.5C 194.196,64.5141 218.863,64.8475 243.5,65.5 Z"/></g>
<g><path style="opacity:0.518" fill="#d1d0d1" d="M 83.5,28.5 C 84.2389,28.369 84.9056,28.5357 85.5,29C 79.2929,31.2784 73.2929,33.7784 67.5,36.5C 71.9669,32.2665 77.3003,29.5998 83.5,28.5 Z"/></g>
<g><path style="opacity:0.255" fill="#e9e9e9" d="M 250.5,27.5 C 258.166,28.3342 264.833,31.3342 270.5,36.5C 270.44,37.0431 270.107,37.3764 269.5,37.5C 263.66,33.5802 257.327,30.7469 250.5,29C 249.262,28.31 249.262,27.81 250.5,27.5 Z"/></g>
<g><path style="opacity:0.486" fill="#e6e5e5" d="M 62.5,40.5 C 62.9382,40.4346 63.2716,40.6012 63.5,41C 59.9753,44.5569 56.8086,48.3903 54,52.5C 51.3236,57.393 48.8236,61.7263 46.5,65.5C 48.6127,55.0638 53.946,46.7305 62.5,40.5 Z"/></g>
<g><path style="opacity:0.867" fill="#e2e2e0" d="M 243.5,65.5 C 218.863,64.8475 194.196,64.5141 169.5,64.5C 144.127,64.3567 118.794,64.8567 93.5,66C 91.4127,66.7922 89.5793,67.9588 88,69.5C 80.5497,79.3755 81.3831,88.3755 90.5,96.5C 90.1034,97.525 89.4368,97.6917 88.5,97C 79.4418,89.1585 78.2752,80.3252 85,70.5C 88.0598,67.3865 91.5598,64.8865 95.5,63C 144.167,62.3333 192.833,62.3333 241.5,63C 242.833,63.6667 244.167,64.3333 245.5,65C 244.906,65.4643 244.239,65.631 243.5,65.5 Z"/></g>
<g><path style="opacity:0.395" fill="#e8e8e9" d="M 286.5,67.5 C 287.494,77.9869 287.828,88.6536 287.5,99.5C 287.918,100.222 288.584,100.722 289.5,101C 288.216,101.684 287.049,101.517 286,100.5C 285.174,89.3255 285.341,78.3255 286.5,67.5 Z"/></g>
<g><path style="opacity:0.241" fill="#ecebec" d="M 245.5,102.5 C 246.167,101.5 246.833,100.5 247.5,99.5C 247.786,89.1148 247.452,78.7815 246.5,68.5C 246.706,66.4508 247.539,66.1175 249,67.5C 249.5,79.1619 249.667,90.8286 249.5,102.5C 248.167,102.5 246.833,102.5 245.5,102.5 Z"/></g>
<g><path style="opacity:0.718" fill="#ececec" d="M 43.5,158.5 C 43.5,131.833 43.5,105.167 43.5,78.5C 44.2679,77.7375 44.7679,76.7375 45,75.5C 45.3742,76.4162 45.8742,77.2496 46.5,78C 45.6712,105.761 45.1712,133.595 45,161.5C 44.7679,160.263 44.2679,159.263 43.5,158.5 Z"/></g>
<g><path style="opacity:0.025" fill="#fefefe" d="M 98.5,99.5 C 148.167,99.5 197.833,99.5 247.5,99.5C 246.833,100.5 246.167,101.5 245.5,102.5C 239.574,101.21 233.407,100.543 227,100.5C 220.922,100.51 214.922,100.843 209,101.5C 172.069,100.836 135.236,100.17 98.5,99.5 Z"/></g>
<g><path style="opacity:0.877" fill="#ebebea" d="M 88.5,137.5 C 86.8333,137.5 85.1667,137.5 83.5,137.5C 83.2172,136.711 82.7172,136.044 82,135.5C 81.1764,144.343 81.3431,153.01 82.5,161.5C 81.5027,167.519 78.1694,171.519 72.5,173.5C 72.5,172.5 72.5,171.5 72.5,170.5C 76.3443,169.83 78.8443,167.496 80,163.5C 80.4998,153.839 80.6665,144.172 80.5,134.5C 83.716,134.345 86.3826,135.345 88.5,137.5 Z"/></g>
<g><path style="opacity:0.353" fill="#dcdcdc" d="M 83.5,137.5 C 83.7701,145.555 83.4368,153.555 82.5,161.5C 81.3431,153.01 81.1764,144.343 82,135.5C 82.7172,136.044 83.2172,136.711 83.5,137.5 Z"/></g>
<g><path style="opacity:0.525" fill="#e7e7e1" d="M 298.5,139.5 C 230.833,139.667 163.166,139.5 95.5,139C 93.2922,138.809 91.2922,138.309 89.5,137.5C 125.306,137.145 161.306,137.145 197.5,137.5C 231.5,137.833 265.5,138.167 299.5,138.5C 299.376,139.107 299.043,139.44 298.5,139.5 Z"/></g>
<g><path style="opacity:0.79" fill="#eeeced" d="M 303.5,190.5 C 303.5,175.167 303.5,159.833 303.5,144.5C 303.56,143.957 303.893,143.624 304.5,143.5C 304.833,149.833 305.167,156.167 305.5,162.5C 305.677,172.048 305.01,181.382 303.5,190.5 Z"/></g>
<g><path style="opacity:0.999" fill="#f7f7f7" d="M 119.5,183.5 C 128.741,185.232 136.741,189.398 143.5,196C 152.333,204.833 161.167,213.667 170,222.5C 183.649,234.783 187.982,249.783 183,267.5C 180.64,272.24 177.807,276.574 174.5,280.5C 174.103,279.475 173.437,279.308 172.5,280C 169.361,284.473 165.527,288.306 161,291.5C 160.308,292.437 160.475,293.103 161.5,293.5C 153.34,301.493 145.34,309.66 137.5,318C 120.708,328.41 104.374,327.743 88.5,316C 76.6667,304.167 64.8333,292.333 53,280.5C 37.4505,256.504 40.9505,235.837 63.5,218.5C 63.4346,218.938 63.6012,219.272 64,219.5C 69.4338,215.943 73.2671,211.61 75.5,206.5C 75.8333,205.5 76.5,204.833 77.5,204.5C 77.4346,204.938 77.6012,205.272 78,205.5C 83.5023,200.961 88.669,196.128 93.5,191C 101.952,186.807 110.619,184.307 119.5,183.5 Z M 142.5,256.5 C 141.5,256.833 140.833,257.5 140.5,258.5C 131.508,266.992 122.675,275.658 114,284.5C 107.245,277.576 100.411,270.909 93.5,264.5C 92.1667,262.5 90.5,260.833 88.5,259.5C 86.2132,258.07 85.0465,256.07 85,253.5C 91.6838,247.316 97.8505,240.649 103.5,233.5C 104.5,233.167 105.167,232.5 105.5,231.5C 108.617,230.218 110.95,228.051 112.5,225C 113.5,224.333 114.5,224.333 115.5,225C 124.667,234.167 133.833,243.333 143,252.5C 143.579,253.928 143.412,255.262 142.5,256.5 Z"/></g>
<g><path style="opacity:0.276" fill="#e0dfdf" d="M 266.5,194.5 C 261.637,194.06 256.637,194.56 251.5,196C 247.997,198.022 244.663,200.189 241.5,202.5C 243.321,198.515 246.321,195.681 250.5,194C 255.917,193.219 261.25,193.385 266.5,194.5 Z"/></g>
<g><path style="opacity:0.999" fill="#f7f7f7" d="M 266.5,194.5 C 271.5,196.167 274.833,199.5 276.5,204.5C 275.675,208.647 275.175,212.981 275,217.5C 274.694,219.906 273.861,222.073 272.5,224C 272.57,224.765 272.903,225.265 273.5,225.5C 272.564,226.974 271.23,227.974 269.5,228.5C 269.44,227.957 269.107,227.624 268.5,227.5C 261.708,231.301 254.875,231.301 248,227.5C 247.536,228.094 247.369,228.761 247.5,229.5C 238.04,222.051 236.04,213.051 241.5,202.5C 244.663,200.189 247.997,198.022 251.5,196C 256.637,194.56 261.637,194.06 266.5,194.5 Z"/></g>
<g><path style="opacity:0.42" fill="#e7e7e7" d="M 119.5,183.5 C 110.619,184.307 101.952,186.807 93.5,191C 88.669,196.128 83.5023,200.961 78,205.5C 77.6012,205.272 77.4346,204.938 77.5,204.5C 84.7274,194.219 94.3941,187.386 106.5,184C 110.821,183.501 115.154,183.334 119.5,183.5 Z"/></g>
<g><path style="opacity:0.34" fill="#e7e7e7" d="M 75.5,206.5 C 73.2671,211.61 69.4338,215.943 64,219.5C 63.6012,219.272 63.4346,218.938 63.5,218.5C 66.5,213.5 70.5,209.5 75.5,206.5 Z"/></g>
<g><path style="opacity:0.08" fill="#e8e7e8" d="M 276.5,204.5 C 278.563,212.013 277.563,219.013 273.5,225.5C 272.903,225.265 272.57,224.765 272.5,224C 273.861,222.073 274.694,219.906 275,217.5C 275.175,212.981 275.675,208.647 276.5,204.5 Z"/></g>
<g><path style="opacity:0.498" fill="#e0dedf" d="M 269.5,228.5 C 262.426,232.092 255.092,232.426 247.5,229.5C 247.369,228.761 247.536,228.094 248,227.5C 254.875,231.301 261.708,231.301 268.5,227.5C 269.107,227.624 269.44,227.957 269.5,228.5 Z"/></g>
<g><path style="opacity:0.153" fill="#eae9e9" d="M 142.5,256.5 C 143.412,255.262 143.579,253.928 143,252.5C 133.833,243.333 124.667,234.167 115.5,225C 114.5,224.333 113.5,224.333 112.5,225C 110.95,228.051 108.617,230.218 105.5,231.5C 105.062,231.565 104.728,231.399 104.5,231C 107.538,228.297 110.205,225.297 112.5,222C 113.635,221.251 114.635,221.417 115.5,222.5C 125.846,232.346 136.013,242.346 146,252.5C 147.075,255.531 146.075,257.531 143,258.5C 142.536,257.906 142.369,257.239 142.5,256.5 Z"/></g>
<g><path style="opacity:0.227" fill="#edecec" d="M 103.5,233.5 C 97.8505,240.649 91.6838,247.316 85,253.5C 85.0465,256.07 86.2132,258.07 88.5,259.5C 88.44,260.043 88.1067,260.376 87.5,260.5C 85.8067,258.973 83.9734,257.64 82,256.5C 81.3333,255.167 81.3333,253.833 82,252.5C 88.0203,247.98 93.187,242.647 97.5,236.5C 99.528,235.451 101.528,234.451 103.5,233.5 Z"/></g>
<g><path style="opacity:0.855" fill="#ebebed" d="M 342.5,145.5 C 342.667,192.168 342.5,238.835 342,285.5C 341.444,291.336 339.611,296.67 336.5,301.5C 335.903,301.265 335.57,300.765 335.5,300C 337.938,294.918 339.604,289.585 340.5,284C 340.827,237.877 340.494,191.877 339.5,146C 340.448,145.517 341.448,145.351 342.5,145.5 Z"/></g>
<g><path style="opacity:0.376" fill="#eeeeee" d="M 140.5,258.5 C 141.525,258.897 141.692,259.563 141,260.5C 132.181,269.927 123.181,278.927 114,287.5C 106.732,280.493 99.2318,272.993 91.5,265C 92.0944,264.536 92.7611,264.369 93.5,264.5C 100.411,270.909 107.245,277.576 114,284.5C 122.675,275.658 131.508,266.992 140.5,258.5 Z"/></g>
<g><path style="opacity:0.32" fill="#e9e9e8" d="M 303.5,191.5 C 304.167,206.33 304.5,221.33 304.5,236.5C 304.499,251.849 303.833,266.849 302.5,281.5C 303.492,251.574 303.825,221.574 303.5,191.5 Z"/></g>
<g><path style="opacity:0.095" fill="#e8e8e8" d="M 174.5,280.5 C 170.446,285.221 166.113,289.554 161.5,293.5C 160.475,293.103 160.308,292.437 161,291.5C 165.527,288.306 169.361,284.473 172.5,280C 173.437,279.308 174.103,279.475 174.5,280.5 Z"/></g>
<g><path style="opacity:0.474" fill="#f5f1f3" d="M 300.5,324.5 C 274.574,325.49 248.574,325.824 222.5,325.5C 221.391,324.71 220.058,324.21 218.5,324C 246.003,323.17 273.336,323.336 300.5,324.5 Z"/></g>
</svg>
